# xmcd
#
# Track frame offsets:
#	150
#	19364
#	34856
#	51014
#	67987
#	83620
#	101555
#	121410
#	139698
#	158881
#	172670
#	191324
#	209780
#
# Disc length: 3002 seconds
#
# Revision: 0
# Processed by: cddbd v1.5.2PL0 Copyright (c) Steve Scherf et al.
# Submitted via: dBpowerAMP V4.0
#
DISCID=a90bb80d
DTITLE=Alan Jackson - Like Red on a Rose
DYEAR=2006
DGENRE=Country
TTITLE0=Anywhere on Earth You Are
TTITLE1=Good Imitation of the Blues
TTITLE2=Like Red on a Rose
TTITLE3=Nobody Said That It Would Be Easy
TTITLE4=Don't Change on Me
TTITLE5=The Fireflys Song
TTITLE6=Wait a Minute
TTITLE7=Had It Not Been You
TTITLE8=A Womans Love
TTITLE9=Don't Ask Why
TTITLE10=As Lovely As You
TTITLE11=Where Do I Go From Here
TTITLE12=Bluebird
EXTD=
EXTT0=
EXTT1=
EXTT2=
EXTT3=
EXTT4=
EXTT5=
EXTT6=
EXTT7=
EXTT8=
EXTT9=
EXTT10=
EXTT11=
EXTT12=
PLAYORDER=
